<svg xmlns="http://www.w3.org/2000/svg" width="758" height="858" viewBox="0 0 758 858">
  <defs>
    <style>
      .cls-1 {
        fill: none;
        stroke: #282828;
        stroke-width: 11px;
        fill-rule: evenodd;
      }
    </style>
  </defs>
  <path class="cls-1" d="M441,131c18,1.352,41.565,8.474,50,20l20,68,48,94,30,38c19.012,0.6,27.205-1.652,37-9l47,34c-3.1,12.564,5.087,20.752,7,31,2.1,11.237-6.956,10.921-5,21,3.525,18.169,21.478,22.878,31,35,4.967,6.323,24.759,23.319,17,34-4.524,3.248-10.822,4.3-14,9-2.637,4.632-2.252,11.584,0,16,11.192,3.494,26.2,7.841,35,14q-0.5,4.5-1,9l13-1c1.646,23.173-3.815,39.135-4,64l-3,1-15-12c-18.912-5.142-62.895,41.631-72,52,3.609,11.771,12.977,17.285,16,30l-25,13c-17.439,2.046-27.438-17.056-44-15a27.867,27.867,0,0,1-13,16c-5.458-1.522-15.577-7.063-21-2-2.435,6.477,2.5,9.446,2,14-1.326,11.964-13.488,21.613-10,40,6.942,9.12,14.844,14.526,20,26h-2l-24,7c-14.853,8.886-19.907,24.5-43,26l-23-24c-12.65-.068-23.872-2.158-34,2-8.315,3.414-13.649,10.869-24,13-22.436,4.619-34.785-12.6-53-10-6.169,13.138-18.607,25.039-25,40-3.781,8.849-3.019,24.125-8,32h-1c-4.538-15-15.01-22.738-16-41,4.634-8.991,12.145-14.524,14-26-8.588-4.228-9.627-13.65-15-21-9.894,5.054-8.776,11.092-13,19h-1c-13.867-6.279,6.765-29.893-25-41l-1,3-3,17h-6c-13.943-11.693-24.535-31.466-44-37-26.828-7.627-37.727,14.511-54,19l-52-10c-36.923-6.623-82.211,1.742-120-5l-4-5c-6.758-15.661,5.928-22.209-6-36,18.758-16.817,41.016-34.1,17-65-6.187-7.962-17.14-4.955-20-15l7,2c14.245-7.839,14.433-19.415,25-30l24-12,7-17,31-28c19.331-24.985,29.024-59.2,56-76l20-6c2.835-10.063,1.759-13.319-1-22l3-2c4.912,2.746,7.906,9.622,11,14,5.621,0.658,9.5,2.043,12,0l10-14c0.5-8.383-.061-14.925-5-18-6-3.655-16.989-3.255-27-3-2.289-22.25-1.294-44.337,6-62l14-26c5.745-26.247-18.706-72.893-21-101,8.978-14.595,25.122-21.668,34-35,2.938-4.412-.231-5.857,4-9,1.984-1.6,1.389-1.3,5-2v5c34.478-4.374,27.041-32.669,54-36l6,7c46.789,0,88.009-28.508,102-63-1-11.011-5.535-15.546-9-24h11c-0.334-4.045.645-4.524,3-8l30,2c2.249,9.419,11.133,13.322,19,17l2-2c2.377-10.355-1.146-14.549-2-26,15.144,0.484,27.2-.648,36-6,2.436-12.31,15.188-28.658,27-31,10.336,7.734,18.9,10.807,25,23l-27,9L462,65c-4.016,2.868-10.35,1.635-13,4-4.031,4.776-6.638,9.429-7,18,4.7,9.479,9.968,7.981,16,15l-1,2h-7C446.775,113.41,441.713,117.84,441,131Z"/>
</svg>
